<?xml version="1.0" encoding="utf-8"?>
<!-- Generator: Adobe Illustrator 16.0.0, SVG Export Plug-In . SVG Version: 6.00 Build 0)  -->
<!DOCTYPE svg PUBLIC "-//W3C//DTD SVG 1.1//EN" "http://www.w3.org/Graphics/SVG/1.1/DTD/svg11.dtd">
<svg version="1.1" id="Layer_1" xmlns="http://www.w3.org/2000/svg" xmlns:xlink="http://www.w3.org/1999/xlink" x="0px" y="0px"
	 width="107px" height="107px" viewBox="0 0 107 107" enable-background="new 0 0 107 107" xml:space="preserve">
<rect y="0.001" fill="#793F6A" width="107" height="106.999"/>
<g>
	<path fill="#FFFFFF" d="M36.632,40.648c0.261,15.5,10.159,21.883,21.622,21.883c8.205,0,13.154-1.434,17.453-3.256l1.953,8.205
		c-4.037,1.824-10.94,3.908-20.97,3.908c-19.407,0-30.999-12.766-30.999-31.781c0-19.016,11.201-33.995,29.566-33.995
		c20.579,0,26.05,18.104,26.05,29.696c0,2.345-0.261,4.168-0.391,5.339H36.632z M70.236,32.444
		c0.13-7.294-2.996-18.626-15.891-18.626c-11.592,0-16.672,10.681-17.583,18.626H70.236z"/>
</g>
<g>
	<path fill="#FFFFFF" d="M15.602,95.031c0.83,0.424,2.106,0.85,3.422,0.85c1.418,0,2.167-0.588,2.167-1.479
		c0-0.85-0.647-1.336-2.288-1.924c-2.268-0.789-3.746-2.045-3.746-4.029c0-2.328,1.944-4.109,5.163-4.109
		c1.539,0,2.673,0.324,3.483,0.688l-0.688,2.49c-0.547-0.262-1.519-0.646-2.855-0.646c-1.336,0-1.984,0.607-1.984,1.314
		c0,0.871,0.77,1.256,2.531,1.924c2.41,0.893,3.544,2.146,3.544,4.07c0,2.289-1.762,4.232-5.508,4.232
		c-1.56,0-3.098-0.404-3.867-0.83L15.602,95.031z"/>
	<path fill="#FFFFFF" d="M38.641,84.562v5.244h5.082v-5.244h3.078v13.646h-3.078V92.5h-5.082v5.709h-3.098V84.562H38.641z"/>
	<path fill="#FFFFFF" d="M71.094,91.244c0,4.475-2.713,7.188-6.701,7.188c-4.051,0-6.42-3.057-6.42-6.945
		c0-4.09,2.613-7.146,6.643-7.146C68.807,84.34,71.094,87.479,71.094,91.244z M61.233,91.426c0,2.674,1.255,4.557,3.321,4.557
		c2.085,0,3.279-1.984,3.279-4.637c0-2.451-1.174-4.557-3.301-4.557C62.448,86.789,61.233,88.773,61.233,91.426z"/>
	<path fill="#FFFFFF" d="M82.227,84.744c0.951-0.162,2.287-0.283,4.17-0.283c1.904,0,3.261,0.365,4.172,1.094
		c0.871,0.688,1.458,1.822,1.458,3.158s-0.446,2.471-1.255,3.24c-1.054,0.992-2.613,1.438-4.436,1.438
		c-0.404,0-0.77-0.021-1.053-0.061v4.879h-3.057V84.744z M85.283,90.939c0.264,0.062,0.588,0.082,1.033,0.082
		c1.641,0,2.652-0.83,2.652-2.227c0-1.256-0.871-2.006-2.41-2.006c-0.627,0-1.053,0.061-1.275,0.121V90.939z"/>
</g>
</svg>
